# xmcd CD database file
#
# Track frame offsets:
#	150
#	8927
#	25965
#	35362
#	47445
#	62355
#	77455
#	87060
#	103457
#	113402
#	127002
#	137152
#	142082
#	149742
#	165867
#	178610
#
# Disc length: 2613 seconds
#
# Revision: 0
# Processed by: cddbd v1.5.1PL0 Copyright (c) Steve Scherf et al.
# Submitted via: CDex 1.51
#
DISCID=d10a3310
DTITLE=Foy Willing and The Riders of the Purple Sage - "Live" From The All-Star Western Theatre Disc 1
DYEAR=1993
DGENRE=Country
TTITLE0=A Cowboy Has To Sing
TTITLE1=Cool Water
TTITLE2=Timber Trail
TTITLE3=I'm Waltzing With A Broken Heart
TTITLE4=Pecos Bill
TTITLE5=I'm Sending You A Big Bouquet of Roses
TTITLE6=Going Down The Road Feeling Bad (Lonesome Road Blues)
TTITLE7=Where The Cool Clear Water Spills
TTITLE8=Anytime
TTITLE9=I'll Hold You In My Heart
TTITLE10=Texas Plains
TTITLE11=Sioux City Sue
TTITLE12=Billy In The Low Ground
TTITLE13=Where The Mountains Meet The Sky
TTITLE14=Remember Me
TTITLE15=Red River Valley
EXTD=YEAR: 1993
EXTT0=
EXTT1=
EXTT2=
EXTT3=
EXTT4=
EXTT5=
EXTT6=
EXTT7=
EXTT8=
EXTT9=
EXTT10=
EXTT11=
EXTT12=
EXTT13=
EXTT14=
EXTT15=
PLAYORDER=
